<svg width="2000" height="2500" viewBox="0 0 2000 2500" fill="none" xmlns="http://www.w3.org/2000/svg">
<rect width="2000" height="2500" rx="180" fill="#012237"/>
<rect x="237" y="209" width="1526" height="1254" fill="#FFD6A9"/>
<rect x="805.48" y="155.542" width="100" height="1160.48" transform="rotate(-7.5 805.48 155.542)" fill="#012237"/>
<rect x="502.735" y="180.154" width="100" height="1228.7" transform="rotate(-22.5 502.735 180.154)" fill="#012237"/>
<rect x="131.268" y="199.98" width="100" height="1411.89" transform="rotate(-37.5 131.268 199.98)" fill="#012237"/>
<rect x="105.182" y="626.405" width="100" height="1139.53" transform="rotate(-52.5 105.182 626.405)" fill="#012237"/>
<rect x="116.221" y="938.046" width="100" height="985.884" transform="rotate(-67.5 116.221 938.046)" fill="#012237"/>
<rect width="100" height="1160.48" transform="matrix(-0.991445 -0.130526 -0.130526 0.991445 1195.63 141.438)" fill="#012237"/>
<rect width="100" height="1228.7" transform="matrix(-0.92388 -0.382683 -0.382683 0.92388 1498.37 166.05)" fill="#012237"/>
<rect width="100" height="1411.89" transform="matrix(-0.793353 -0.608761 -0.608761 0.793353 1869.84 185.876)" fill="#012237"/>
<rect width="100" height="1139.53" transform="matrix(-0.608761 -0.793353 -0.793353 0.608761 1895.92 612.302)" fill="#012237"/>
<rect width="100" height="985.884" transform="matrix(-0.382683 -0.92388 -0.92388 0.382683 1884.88 923.942)" fill="#012237"/>
<circle cx="1000" cy="1250" r="600" fill="#FFD6A9"/>
<rect x="237" y="1463" width="1514" height="808" fill="#012237"/>
<path d="M763.744 2166.5C712.744 2166.5 667.994 2155.25 629.494 2132.75C591.494 2110.25 561.994 2078.75 540.994 2038.25C519.994 1997.25 509.494 1949.25 509.494 1894.25C509.494 1852.75 515.494 1815.5 527.494 1782.5C539.494 1749 556.494 1720.5 578.494 1697C600.994 1673 627.744 1654.75 658.744 1642.25C690.244 1629.25 725.244 1622.75 763.744 1622.75C815.244 1622.75 859.994 1634 897.994 1656.5C935.994 1678.5 965.494 1709.75 986.494 1750.25C1007.49 1790.75 1017.99 1838.5 1017.99 1893.5C1017.99 1935 1011.99 1972.5 999.994 2006C987.994 2039.5 970.744 2068.25 948.244 2092.25C926.244 2116.25 899.494 2134.75 867.994 2147.75C836.994 2160.25 802.244 2166.5 763.744 2166.5ZM763.744 2084C796.244 2084 823.744 2076.5 846.244 2061.5C869.244 2046.5 886.744 2024.75 898.744 1996.25C911.244 1967.75 917.494 1933.75 917.494 1894.25C917.494 1834.25 903.994 1787.75 876.994 1754.75C850.494 1721.75 812.744 1705.25 763.744 1705.25C731.744 1705.25 704.244 1712.75 681.244 1727.75C658.244 1742.25 640.494 1763.75 627.994 1792.25C615.994 1820.25 609.994 1854.25 609.994 1894.25C609.994 1953.75 623.494 2000.25 650.494 2033.75C677.494 2067.25 715.244 2084 763.744 2084ZM1297.86 2166.5C1275.86 2166.5 1253.86 2164.75 1231.86 2161.25C1209.86 2158.25 1189.11 2153.5 1169.61 2147C1150.11 2140 1132.61 2131.5 1117.11 2121.5C1108.11 2115.5 1101.86 2108.25 1098.36 2099.75C1094.86 2091.25 1093.61 2083 1094.61 2075C1096.11 2066.5 1099.36 2059.25 1104.36 2053.25C1109.86 2046.75 1116.61 2042.75 1124.61 2041.25C1132.61 2039.75 1141.36 2042 1150.86 2048C1172.86 2061 1196.11 2070.5 1220.61 2076.5C1245.11 2082.5 1270.86 2085.5 1297.86 2085.5C1337.36 2085.5 1366.11 2079 1384.11 2066C1402.11 2052.5 1411.11 2035.25 1411.11 2014.25C1411.11 1996.75 1404.61 1983 1391.61 1973C1379.11 1963 1357.36 1954.75 1326.36 1948.25L1243.86 1931C1196.36 1921 1160.86 1904.25 1137.36 1880.75C1114.36 1856.75 1102.86 1825.25 1102.86 1786.25C1102.86 1761.75 1107.86 1739.5 1117.86 1719.5C1127.86 1699.5 1141.86 1682.25 1159.86 1667.75C1178.36 1653.25 1200.11 1642.25 1225.11 1634.75C1250.61 1626.75 1278.61 1622.75 1309.11 1622.75C1339.11 1622.75 1367.61 1626.5 1394.61 1634C1421.61 1641.5 1445.86 1652.5 1467.36 1667C1475.36 1672.5 1480.61 1679.25 1483.11 1687.25C1486.11 1695.25 1486.86 1703.25 1485.36 1711.25C1483.86 1718.75 1480.36 1725.25 1474.86 1730.75C1469.36 1736.25 1462.36 1739.5 1453.86 1740.5C1445.86 1741.5 1436.61 1739 1426.11 1733C1407.61 1722.5 1388.86 1715 1369.86 1710.5C1350.86 1706 1330.36 1703.75 1308.36 1703.75C1285.36 1703.75 1265.61 1707 1249.11 1713.5C1232.61 1720 1219.86 1729.25 1210.86 1741.25C1202.36 1752.75 1198.11 1766.5 1198.11 1782.5C1198.11 1800.5 1204.11 1815 1216.11 1826C1228.11 1836.5 1248.61 1844.75 1277.61 1850.75L1359.36 1868C1408.86 1878.5 1445.61 1895 1469.61 1917.5C1494.11 1940 1506.36 1970 1506.36 2007.5C1506.36 2031.5 1501.36 2053.25 1491.36 2072.75C1481.86 2092.25 1467.86 2109 1449.36 2123C1431.36 2137 1409.61 2147.75 1384.11 2155.25C1358.61 2162.75 1329.86 2166.5 1297.86 2166.5Z" fill="#FFD6A9"/>
<path d="M1010.64 1553.27H1096.33C1102.88 1321.02 1085.84 1198.87 1010.64 998.448L990.299 1009.54C1061.36 1190.35 1051.37 1316.62 1010.64 1553.27Z" fill="#012237"/>
<path d="M1012.49 1002.76C883.771 1038.17 878.213 1113.72 970.572 1218.53C966.537 1131.11 976.312 1084.09 1012.49 1002.76Z" fill="#012237"/>
<path d="M1010.03 1023.72C907.514 932.971 786.037 984.146 777 1148.87C873.431 1051.7 924.139 1027.13 1010.03 1023.72Z" fill="#012237"/>
<path d="M1006.33 1027.42C998.858 891.389 947.216 866.471 806.591 874.537C876.332 916.483 919.583 950.88 1006.33 1027.42Z" fill="#012237"/>
<path d="M1005.09 1029.89C966.383 892.01 994.875 853.848 1104.96 832C1045.95 897.559 1025.03 941.445 1005.09 1029.89Z" fill="#012237"/>
<path d="M1007.56 1020.02C1028.47 884.872 1083.95 875.906 1210.38 925.704C1123.91 941.129 1079.31 961.202 1007.56 1020.02Z" fill="#012237"/>
<path d="M998.93 1016.33C1104.72 940.42 1156.11 986.353 1194.35 1111.88C1125.41 1051.24 1082.21 1031.64 998.93 1016.33Z" fill="#012237"/>
</svg>
