<svg width="3840" height="3840" viewBox="0 0 3840 3840" fill="none" xmlns="http://www.w3.org/2000/svg">
<rect width="3840" height="3840" fill="#FFD6A9"/>
<rect x="920" y="670" width="2000" height="2500" rx="180" fill="#012237"/>
<rect x="1157" y="879" width="1526" height="1254" fill="#FFD6A9"/>
<rect x="1725.48" y="825.542" width="100" height="1160.48" transform="rotate(-7.5 1725.48 825.542)" fill="#012237"/>
<rect x="1422.74" y="850.154" width="100" height="1228.7" transform="rotate(-22.5 1422.74 850.154)" fill="#012237"/>
<rect x="1051.27" y="869.98" width="100" height="1411.89" transform="rotate(-37.5 1051.27 869.98)" fill="#012237"/>
<rect x="1025.18" y="1296.41" width="100" height="1139.53" transform="rotate(-52.5 1025.18 1296.41)" fill="#012237"/>
<rect x="1036.22" y="1608.05" width="100" height="985.884" transform="rotate(-67.5 1036.22 1608.05)" fill="#012237"/>
<rect width="100" height="1160.48" transform="matrix(-0.991445 -0.130526 -0.130526 0.991445 2115.63 811.438)" fill="#012237"/>
<rect width="100" height="1228.7" transform="matrix(-0.92388 -0.382683 -0.382683 0.92388 2418.37 836.05)" fill="#012237"/>
<rect width="100" height="1411.89" transform="matrix(-0.793353 -0.608761 -0.608761 0.793353 2789.84 855.876)" fill="#012237"/>
<rect width="100" height="1139.53" transform="matrix(-0.608761 -0.793353 -0.793353 0.608761 2815.92 1282.3)" fill="#012237"/>
<rect width="100" height="985.884" transform="matrix(-0.382683 -0.92388 -0.92388 0.382683 2804.88 1593.94)" fill="#012237"/>
<circle cx="1920" cy="1920" r="600" fill="#FFD6A9"/>
<rect x="1157" y="2133" width="1514" height="808" fill="#012237"/>
<path d="M1683.74 2836.5C1632.74 2836.5 1587.99 2825.25 1549.49 2802.75C1511.49 2780.25 1481.99 2748.75 1460.99 2708.25C1439.99 2667.25 1429.49 2619.25 1429.49 2564.25C1429.49 2522.75 1435.49 2485.5 1447.49 2452.5C1459.49 2419 1476.49 2390.5 1498.49 2367C1520.99 2343 1547.74 2324.75 1578.74 2312.25C1610.24 2299.25 1645.24 2292.75 1683.74 2292.75C1735.24 2292.75 1779.99 2304 1817.99 2326.5C1855.99 2348.5 1885.49 2379.75 1906.49 2420.25C1927.49 2460.75 1937.99 2508.5 1937.99 2563.5C1937.99 2605 1931.99 2642.5 1919.99 2676C1907.99 2709.5 1890.74 2738.25 1868.24 2762.25C1846.24 2786.25 1819.49 2804.75 1787.99 2817.75C1756.99 2830.25 1722.24 2836.5 1683.74 2836.5ZM1683.74 2754C1716.24 2754 1743.74 2746.5 1766.24 2731.5C1789.24 2716.5 1806.74 2694.75 1818.74 2666.25C1831.24 2637.75 1837.49 2603.75 1837.49 2564.25C1837.49 2504.25 1823.99 2457.75 1796.99 2424.75C1770.49 2391.75 1732.74 2375.25 1683.74 2375.25C1651.74 2375.25 1624.24 2382.75 1601.24 2397.75C1578.24 2412.25 1560.49 2433.75 1547.99 2462.25C1535.99 2490.25 1529.99 2524.25 1529.99 2564.25C1529.99 2623.75 1543.49 2670.25 1570.49 2703.75C1597.49 2737.25 1635.24 2754 1683.74 2754ZM2217.86 2836.5C2195.86 2836.5 2173.86 2834.75 2151.86 2831.25C2129.86 2828.25 2109.11 2823.5 2089.61 2817C2070.11 2810 2052.61 2801.5 2037.11 2791.5C2028.11 2785.5 2021.86 2778.25 2018.36 2769.75C2014.86 2761.25 2013.61 2753 2014.61 2745C2016.11 2736.5 2019.36 2729.25 2024.36 2723.25C2029.86 2716.75 2036.61 2712.75 2044.61 2711.25C2052.61 2709.75 2061.36 2712 2070.86 2718C2092.86 2731 2116.11 2740.5 2140.61 2746.5C2165.11 2752.5 2190.86 2755.5 2217.86 2755.5C2257.36 2755.5 2286.11 2749 2304.11 2736C2322.11 2722.5 2331.11 2705.25 2331.11 2684.25C2331.11 2666.75 2324.61 2653 2311.61 2643C2299.11 2633 2277.36 2624.75 2246.36 2618.25L2163.86 2601C2116.36 2591 2080.86 2574.25 2057.36 2550.75C2034.36 2526.75 2022.86 2495.25 2022.86 2456.25C2022.86 2431.75 2027.86 2409.5 2037.86 2389.5C2047.86 2369.5 2061.86 2352.25 2079.86 2337.75C2098.36 2323.25 2120.11 2312.25 2145.11 2304.75C2170.61 2296.75 2198.61 2292.75 2229.11 2292.75C2259.11 2292.75 2287.61 2296.5 2314.61 2304C2341.61 2311.5 2365.86 2322.5 2387.36 2337C2395.36 2342.5 2400.61 2349.25 2403.11 2357.25C2406.11 2365.25 2406.86 2373.25 2405.36 2381.25C2403.86 2388.75 2400.36 2395.25 2394.86 2400.75C2389.36 2406.25 2382.36 2409.5 2373.86 2410.5C2365.86 2411.5 2356.61 2409 2346.11 2403C2327.61 2392.5 2308.86 2385 2289.86 2380.5C2270.86 2376 2250.36 2373.75 2228.36 2373.75C2205.36 2373.75 2185.61 2377 2169.11 2383.5C2152.61 2390 2139.86 2399.25 2130.86 2411.25C2122.36 2422.75 2118.11 2436.5 2118.11 2452.5C2118.11 2470.5 2124.11 2485 2136.11 2496C2148.11 2506.5 2168.61 2514.75 2197.61 2520.75L2279.36 2538C2328.86 2548.5 2365.61 2565 2389.61 2587.5C2414.11 2610 2426.36 2640 2426.36 2677.5C2426.36 2701.5 2421.36 2723.25 2411.36 2742.75C2401.86 2762.25 2387.86 2779 2369.36 2793C2351.36 2807 2329.61 2817.75 2304.11 2825.25C2278.61 2832.75 2249.86 2836.5 2217.86 2836.5Z" fill="#FFD6A9"/>
<path d="M1930.64 2223.27H2016.33C2022.88 1991.02 2005.84 1868.87 1930.64 1668.45L1910.3 1679.54C1981.36 1860.35 1971.37 1986.62 1930.64 2223.27Z" fill="#012237"/>
<path d="M1932.49 1672.76C1803.77 1708.17 1798.21 1783.72 1890.57 1888.53C1886.54 1801.11 1896.31 1754.09 1932.49 1672.76Z" fill="#012237"/>
<path d="M1930.03 1693.72C1827.51 1602.97 1706.04 1654.15 1697 1818.87C1793.43 1721.7 1844.14 1697.13 1930.03 1693.72Z" fill="#012237"/>
<path d="M1926.33 1697.42C1918.86 1561.39 1867.22 1536.47 1726.59 1544.54C1796.33 1586.48 1839.58 1620.88 1926.33 1697.42Z" fill="#012237"/>
<path d="M1925.09 1699.89C1886.38 1562.01 1914.88 1523.85 2024.96 1502C1965.95 1567.56 1945.03 1611.45 1925.09 1699.89Z" fill="#012237"/>
<path d="M1927.56 1690.02C1948.47 1554.87 2003.95 1545.91 2130.38 1595.7C2043.92 1611.13 1999.31 1631.2 1927.56 1690.02Z" fill="#012237"/>
<path d="M1918.93 1686.33C2024.72 1610.42 2076.11 1656.35 2114.35 1781.88C2045.41 1721.24 2002.21 1701.64 1918.93 1686.33Z" fill="#012237"/>
</svg>
